<svg xmlns="http://www.w3.org/2000/svg">

	<symbol id="icon-like" viewBox="0 0 32 32">
		<path d="M14.7 15.8c-.4-.9-.7-2.1-.7-3.3s.3-2.5.7-3.7c.5-1.2 1.1-2.3 1.9-3.2.8-.9 1.8-1.7 2.9-2.3 1.1-.5 2.3-.8 3.5-.8s2.4.3 3.5.7c1.1.5 2 1.1 2.9 1.9.8.8 1.5 1.8 1.9 2.9.4 1.1.7 2.3.7 3.5s-.3 2.4-.7 3.5c-.5 1.1-1.1 2-1.9 2.9-.8.8-12.3 11.1-13.4 11.6C14.9 29 3.5 18.7 2.6 17.9c-.8-.8-1.5-1.8-1.9-2.9-.4-1.1-.7-2.3-.7-3.5S.3 9.1.7 8c.5-1.1 1.1-2 1.9-2.9.9-.8 1.8-1.4 2.9-1.9 1.1-.4 2.3-.7 3.5-.7s2.4.3 3.5.9c1.1.6 2 1.3 2.9 2.3.8.9 1.5 2 1.9 3.2.4 1.1.7 2.4.7 3.6s-.3 2.4-.7 3.3c-.5 1-1.1 1.8-1.9 2.5"></path>
	</symbol>

	<symbol id="icon-search" viewBox="0 0 20 20" fill="none" stroke-width=".4">
		<path d="M3.67 6.55c.027 1.305.5 2.2.78 2.645.56.756.841 1.132 1.841 1.613 1.067.564 1.865.741 2.8.764-1.654.895-3.736.271-4.777-.926C3.01 8.953 3.093 7.64 3.67 6.55zm8.658 6.834l.94.89c-.326.477-.223 1.12.046 1.407L16.9 19.28c.362.323.931.784 1.72.12l.86-.85c.548-.67.251-1.18-.023-1.508L15.754 13.4c-.573-.626-1.222-.356-1.46-.074l-.97-.96M2.275 2.639c-2.45 2.789-2.404 6.133-1.12 8.47 1.285 2.336 3.52 3.731 6.158 3.912 2.638.18 4.345-1.088 5.015-1.637 1.977-1.844 3.01-4.703 2.612-6.9-.41-2.083-1.103-3.093-2.336-4.266C11.37 1.045 9.55.305 7.634.32c-1.666.033-3.97.485-5.706 2.74l.84.657C4.425 1.75 6.43 1.438 7.202 1.385a6.28 6.28 0 0 1 4.789 1.674c1.935 1.772 2.21 4.245 1.98 5.571-.23 1.327-.846 2.609-2.01 3.72-1.163 1.112-3.224 1.982-5.389 1.587s-4.005-2.024-4.688-3.754c-.683-1.731-.69-3.125-.069-4.854A7.25 7.25 0 0 1 3.11 3.318c-.267-.213-.092-.077-.836-.679z"
			fill="#000"></path>
	</symbol>

	<symbol id="icon-user" viewBox="0 0 23 23" fill="none" stroke="#000">
		<path d="M8.716 15.763c.46.866 1.397 1.746 2.784 1.745 1.388-.002 2.343-.954 2.656-1.934m-.335-2.63c-.076.889-.259 2.011.206 2.45 1.048 1.115 3.742 1.829 4.9 2.63.82.567 1.187 1.185 1.289 2.63H2.786c.073-1.239.3-1.585.902-2.244 1.698-1.62 3.485-1.494 5.183-2.888.542-.748.412-1.478.335-2.423M7.76 8.483c-.326-1.18-.322-1.848-.36-2.681-.04-.834.222-1.734.747-2.475.525-.741 1.62-1.201 2.398-1.29.778-.087 1.422-.15 2.295.181.294.118.513.312.67.567.437.076 1.126.361 1.367.619.24.258.657.834.773 1.753.128 1.335-.12 2.16-.464 3.378.35.253.441.611.361 1.263-.08.653-.454.94-.773.98-.101.64-.214 1.184-.697 1.83-.788 1.058-2.117 1.682-2.604 1.677-.486-.006-1.271-.219-2.011-.954-.746-.742-1.101-1.606-1.264-2.553-.602-.088-.643-.496-.773-1.083-.152-.543-.125-1.004.335-1.212z"
			></path>
	</symbol>

	<symbol id="icon-cart" viewBox="0 0 22 22" fill="none" stroke-width=".4" stroke="#000">
		<path d="M11.506 9.607h.597l.001 1.005-2.214-.007-.011-.999zm8.336 1.035l1.973 1.406-2.047 9.544M2.183 10.619l-1.948 1.43 1.973 9.557m14.157-13.11l-.025 13.072M5.636 8.546l-.024 12.998M8.495 8.511l4.988-.009m-6.17-.005h-5.13l.025 13.11 17.561-.013V8.498h-5.056m-7.407 3.55l.022.854 1.158-.007-.01-.825-1.566-.006-.015-1.763 1.602-.014-.026-6.428c.04-1.13 1.144-2.292 2.52-2.314 1.376-.022 2.54 1.208 2.502 2.331l.016 6.432 1.569.017.017 1.724-1.585.018v.814l1.162.024.012-.825-1.54-.035-.013-1.73 1.564-.007-.035-6.51c.022-1.324-1.346-3.412-3.687-3.4-2.34.01-3.523 1.888-3.667 3.389l.01 6.5 1.534.025v1.737l-.943.018"
			stroke-linejoin="round"></path>
	</symbol>
</svg>